# Blender v2.69 (sub 0) OBJ File: ''
# www.blender.org
mtllib level2.mtl
o Plane
v -24.976046 4.000000 -24.976046
v 24.976046 4.000000 -24.976046
v -24.976046 4.000000 24.976046
v 24.976046 4.000000 24.976046
v -19.980837 4.000000 -24.976046
v -14.985628 4.000000 -24.976046
v -9.990419 4.000000 -24.976046
v -4.995210 4.000000 -24.976046
v 0.000000 4.000000 -24.976046
v 4.995209 4.000000 -24.976046
v 9.990418 4.000000 -24.976046
v 14.985628 4.000000 -24.976046
v 19.980837 4.000000 -24.976046
v -19.980837 4.000000 24.976046
v -14.985628 4.000000 24.976046
v -9.990419 4.000000 24.976046
v -4.995210 4.000000 24.976046
v 0.000000 4.000000 24.976046
v 4.995209 4.000000 24.976046
v 9.990418 4.000000 24.976046
v 14.985628 4.000000 24.976046
v 19.980837 4.000000 24.976046
v 24.976046 4.000000 19.980837
v 24.976046 4.000000 14.985628
v 24.976046 4.000000 9.990419
v 24.976046 4.000000 4.995210
v 24.976046 4.000000 0.000000
v 24.976046 4.000000 -4.995209
v 24.976046 4.000000 -9.990418
v 24.976046 4.000000 -14.985628
v 24.976046 4.000000 -19.980837
v -24.976046 4.000000 -19.980837
v -24.976046 4.000000 -14.985628
v -24.976046 4.000000 -9.990419
v -24.976046 4.000000 -4.995210
v -24.976046 4.000000 0.000000
v -24.976046 4.000000 4.995209
v -24.976046 4.000000 9.990418
v -24.976046 4.000000 14.985628
v -24.976046 4.000000 19.980837
v 19.980837 4.000000 -14.985628
v 19.980837 4.000000 -9.990419
v 19.980837 4.000000 -4.995210
v 19.980837 4.000000 9.990418
v 19.980837 4.000000 14.985628
v 14.985628 4.000000 -14.985628
v 14.985628 4.000000 -9.990419
v 14.985628 4.000000 -4.995210
v 14.985628 4.000000 9.990418
v 14.985628 4.000000 14.985628
v 9.990418 4.000000 -14.985628
v 9.990418 4.000000 -9.990419
v 9.990418 4.000000 -4.995210
v 9.990418 4.000000 0.000000
v 9.990418 4.000000 4.995209
v 9.990418 4.000000 9.990418
v 9.990418 4.000000 14.985628
v 4.995209 4.000000 -14.985628
v 4.995209 4.000000 -9.990419
v 4.995209 4.000000 -4.995210
v 4.995209 4.000000 0.000000
v 4.995209 4.000000 4.995209
v 4.995209 4.000000 9.990418
v 4.995209 4.000000 14.985628
v 4.995209 4.000000 19.980837
v 0.000000 4.000000 -14.985628
v 0.000000 4.000000 -9.990419
v 0.000000 4.000000 -4.995210
v 0.000000 4.000000 0.000000
v 0.000000 4.000000 4.995209
v 0.000000 4.000000 9.990418
v 0.000000 4.000000 14.985628
v 0.000000 4.000000 19.980837
v -4.995210 4.000000 -14.985628
v -4.995210 4.000000 -9.990419
v -4.995210 4.000000 -4.995210
v -4.995210 4.000000 0.000000
v -4.995210 4.000000 4.995209
v -4.995210 4.000000 9.990418
v -4.995210 4.000000 14.985628
v -4.995210 4.000000 19.980837
v -9.990419 4.000000 -14.985628
v -9.990419 4.000000 -9.990419
v -9.990419 4.000000 -4.995210
v -9.990419 4.000000 0.000000
v -9.990419 4.000000 4.995209
v -9.990419 4.000000 9.990418
v -9.990419 4.000000 14.985628
v -14.985628 4.000000 -14.985628
v -14.985628 4.000000 -9.990419
v -14.985628 4.000000 -4.995210
v -14.985628 4.000000 9.990418
v -14.985628 4.000000 14.985628
v -19.980837 4.000000 -14.985628
v -19.980837 4.000000 -9.990419
v -19.980837 4.000000 -4.995210
v -19.980837 4.000000 9.990418
v -19.980837 4.000000 14.985628
v -24.976046 0.000000 -24.976046
v 24.976046 0.000000 -24.976046
v -24.976046 0.000000 24.976046
v 24.976046 0.000000 24.976046
v -19.980837 0.000000 -24.976046
v -14.985628 0.000000 -24.976046
v -9.990419 0.000000 -24.976046
v -4.995210 0.000000 -24.976046
v 0.000000 0.000000 -24.976046
v 4.995209 0.000000 -24.976046
v 9.990418 0.000000 -24.976046
v 14.985628 0.000000 -24.976046
v 19.980837 0.000000 -24.976046
v -19.980837 0.000000 24.976046
v -14.985628 0.000000 24.976046
v -9.990419 0.000000 24.976046
v -4.995210 0.000000 24.976046
v 4.995209 0.000000 24.976046
v 9.990418 0.000000 24.976046
v 14.985628 0.000000 24.976046
v 19.980837 0.000000 24.976046
v 24.976046 0.000000 19.980837
v 24.976046 0.000000 14.985628
v 24.976046 0.000000 9.990419
v 24.976046 0.000000 4.995210
v 24.976046 0.000000 0.000000
v 24.976046 0.000000 -4.995209
v 24.976046 0.000000 -14.985628
v 24.976046 0.000000 -19.980837
v -24.976046 0.000000 -19.980837
v -24.976046 0.000000 -14.985628
v -24.976046 0.000000 -4.995210
v -24.976046 0.000000 0.000000
v -24.976046 0.000000 4.995209
v -24.976046 0.000000 9.990418
v -24.976046 0.000000 14.985628
v -24.976046 0.000000 19.980837
v 19.980837 0.000000 -19.980837
v 19.980837 0.000000 -14.985628
v 19.980837 0.000000 -9.990419
v 19.980837 0.000000 -4.995210
v 19.980837 0.000000 0.000000
v 19.980837 0.000000 4.995209
v 19.980837 0.000000 9.990418
v 19.980837 0.000000 14.985628
v 19.980837 0.000000 19.980837
v 14.985628 0.000000 -19.980837
v 14.985628 0.000000 -14.985628
v 14.985628 0.000000 -9.990419
v 14.985628 0.000000 -4.995210
v 14.985628 0.000000 0.000000
v 14.985628 0.000000 4.995209
v 14.985628 0.000000 9.990418
v 14.985628 0.000000 14.985628
v 14.985628 0.000000 19.980837
v 9.990418 0.000000 -19.980837
v 9.990418 0.000000 -14.985628
v 9.990418 0.000000 -4.995210
v 9.990418 0.000000 0.000000
v 9.990418 0.000000 4.995209
v 9.990418 0.000000 9.990418
v 9.990418 0.000000 14.985628
v 9.990418 0.000000 19.980837
v 4.995209 0.000000 -19.980837
v 4.995209 0.000000 -14.985628
v 4.995209 0.000000 0.000000
v 4.995209 0.000000 4.995209
v 4.995209 0.000000 14.985628
v 4.995209 0.000000 19.980837
v 0.000000 0.000000 -19.980837
v 0.000000 0.000000 -14.985628
v 0.000000 0.000000 0.000000
v 0.000000 0.000000 4.995209
v -4.995210 0.000000 -19.980837
v -4.995210 0.000000 -14.985628
v -4.995210 0.000000 0.000000
v -4.995210 0.000000 4.995209
v -4.995210 0.000000 14.985628
v -4.995210 0.000000 19.980837
v -9.990419 0.000000 -19.980837
v -9.990419 0.000000 -14.985628
v -9.990419 0.000000 -4.995210
v -9.990419 0.000000 0.000000
v -9.990419 0.000000 4.995209
v -9.990419 0.000000 9.990418
v -9.990419 0.000000 14.985628
v -9.990419 0.000000 19.980837
v -14.985628 0.000000 -19.980837
v -14.985628 0.000000 -14.985628
v -14.985628 0.000000 -9.990419
v -14.985628 0.000000 -4.995210
v -14.985628 0.000000 0.000000
v -14.985628 0.000000 4.995209
v -14.985628 0.000000 9.990418
v -14.985628 0.000000 14.985628
v -14.985628 0.000000 19.980837
v -19.980837 0.000000 -19.980837
v -19.980837 0.000000 -14.985628
v -19.980837 0.000000 -9.990419
v -19.980837 0.000000 -4.995210
v -19.980837 0.000000 0.000000
v -19.980837 0.000000 4.995209
v -19.980837 0.000000 9.990418
v -19.980837 0.000000 14.985628
v -19.980837 0.000000 19.980837
v 19.980837 4.000000 -9.990419
v 19.980837 4.000000 -14.985628
v 19.980837 4.000000 -14.985628
v 19.980837 4.000000 -4.995210
v 19.980837 4.000000 -4.995210
v -19.980837 0.000000 -14.985628
v -19.980837 0.000000 -14.985628
v -19.980837 4.000000 -14.985628
v -19.980837 4.000000 -14.985628
v 19.980837 4.000000 14.985628
v 19.980837 4.000000 14.985628
v 19.980837 4.000000 9.990418
v 19.980837 4.000000 9.990418
v 14.985628 4.000000 -9.990419
v 14.985628 4.000000 -14.985628
v 14.985628 4.000000 -14.985628
v 14.985628 4.000000 -4.995210
v 14.985628 4.000000 -4.995210
v 19.980837 0.000000 14.985628
v 19.980837 0.000000 14.985628
v -9.990419 4.000000 4.995209
v -9.990419 4.000000 4.995209
v -9.990419 0.000000 4.995209
v -9.990419 0.000000 4.995209
v 4.995209 4.000000 24.976046
v 4.995209 4.000000 24.976046
v 4.995209 0.000000 24.976046
v 4.995209 0.000000 24.976046
v 14.985628 4.000000 14.985628
v 14.985628 4.000000 14.985628
v 14.985628 4.000000 9.990418
v 14.985628 4.000000 9.990418
v -14.985628 0.000000 -4.995210
v -14.985628 0.000000 -4.995210
v -14.985628 4.000000 -4.995210
v -14.985628 4.000000 -4.995210
v 24.976046 4.000000 9.990419
v 24.976046 4.000000 9.990419
v 24.976046 0.000000 9.990419
v 24.976046 0.000000 9.990419
v 9.990418 4.000000 0.000000
v 9.990418 4.000000 0.000000
v 9.990418 4.000000 -4.995210
v 9.990418 4.000000 -4.995210
v 19.980837 0.000000 9.990418
v 19.980837 0.000000 9.990418
v 9.990418 4.000000 9.990418
v 9.990418 4.000000 9.990418
v 9.990418 4.000000 4.995209
v 9.990418 4.000000 4.995209
v 4.995209 4.000000 19.980837
v -24.976046 4.000000 -14.985628
v -24.976046 4.000000 -14.985628
v -24.976046 0.000000 -14.985628
v -24.976046 0.000000 -14.985628
v 4.995209 4.000000 14.985628
v 4.995209 4.000000 14.985628
v -19.980837 4.000000 14.985628
v -19.980837 4.000000 14.985628
v -19.980837 0.000000 14.985628
v -19.980837 0.000000 14.985628
v -19.980837 0.000000 9.990418
v -19.980837 0.000000 9.990418
v -19.980837 4.000000 9.990418
v -19.980837 4.000000 9.990418
v 14.985628 0.000000 -4.995210
v 14.985628 0.000000 -4.995210
v -4.995210 4.000000 19.980837
v -4.995210 4.000000 24.976046
v -4.995210 4.000000 24.976046
v -24.976046 0.000000 14.985628
v -24.976046 0.000000 14.985628
v -24.976046 4.000000 14.985628
v -24.976046 4.000000 14.985628
v -4.995210 4.000000 14.985628
v -4.995210 4.000000 14.985628
v -14.985628 0.000000 -14.985628
v -14.985628 0.000000 -14.985628
v -14.985628 4.000000 -14.985628
v -14.985628 4.000000 -14.985628
v -9.990419 4.000000 -4.995210
v -9.990419 4.000000 -4.995210
v -9.990419 0.000000 -4.995210
v -9.990419 0.000000 -4.995210
v -9.990419 4.000000 0.000000
v -9.990419 4.000000 0.000000
v -9.990419 0.000000 0.000000
v -9.990419 0.000000 0.000000
v -9.990419 4.000000 9.990418
v -9.990419 4.000000 9.990418
v -24.976046 0.000000 -24.976046
v -24.976046 0.000000 -24.976046
v -24.976046 4.000000 -24.976046
v -14.985628 4.000000 -9.990419
v -4.995210 0.000000 24.976046
v -4.995210 0.000000 24.976046
v 4.995209 0.000000 14.985628
v 4.995209 0.000000 14.985628
v -14.985628 4.000000 14.985628
v -14.985628 4.000000 14.985628
v -14.985628 4.000000 9.990418
v -14.985628 4.000000 9.990418
v 14.985628 0.000000 -14.985628
v 14.985628 0.000000 -14.985628
v 24.976046 4.000000 14.985628
v 24.976046 4.000000 14.985628
v 24.976046 0.000000 14.985628
v 24.976046 0.000000 14.985628
v -19.980837 4.000000 -9.990419
v -19.980837 4.000000 -4.995210
v -19.980837 4.000000 -4.995210
v 24.976046 0.000000 -14.985628
v 24.976046 0.000000 -14.985628
v 24.976046 4.000000 -14.985628
v 24.976046 4.000000 -14.985628
v -24.976046 4.000000 9.990418
v -24.976046 4.000000 9.990418
v -24.976046 0.000000 9.990418
v -24.976046 0.000000 9.990418
v 24.976046 4.000000 -4.995209
v 24.976046 4.000000 -4.995209
v 24.976046 0.000000 -24.976046
v 24.976046 0.000000 -24.976046
v 24.976046 4.000000 -24.976046
v 24.976046 0.000000 24.976046
v 24.976046 0.000000 24.976046
v 24.976046 4.000000 24.976046
v 24.976046 0.000000 -4.995209
v 24.976046 0.000000 -4.995209
v -14.985628 0.000000 14.985628
v -14.985628 0.000000 14.985628
v 19.980837 0.000000 -4.995210
v 19.980837 0.000000 -4.995210
v -24.976046 4.000000 -4.995210
v -24.976046 4.000000 -4.995210
v -24.976046 0.000000 -4.995210
v -24.976046 0.000000 -4.995210
v 9.990418 4.000000 -14.985628
v 9.990418 0.000000 4.995209
v 9.990418 0.000000 4.995209
v 9.990418 4.000000 14.985628
v -9.990419 0.000000 9.990418
v -9.990419 0.000000 9.990418
v -14.985628 0.000000 9.990418
v -14.985628 0.000000 9.990418
v 4.995209 4.000000 -14.985628
v 4.995209 4.000000 0.000000
v 4.995209 4.000000 4.995209
v 0.000000 4.000000 -14.985628
v 0.000000 4.000000 0.000000
v 0.000000 4.000000 4.995209
v -4.995210 4.000000 -14.985628
v -4.995210 4.000000 0.000000
v -4.995210 4.000000 4.995209
v -9.990419 4.000000 -14.985628
v -9.990419 4.000000 14.985628
v 14.985628 0.000000 14.985628
v 14.985628 0.000000 14.985628
v 19.980837 0.000000 -14.985628
v 19.980837 0.000000 -14.985628
v 14.985628 0.000000 9.990418
v 14.985628 0.000000 9.990418
v 9.990418 0.000000 9.990418
v 9.990418 0.000000 9.990418
v -4.995210 0.000000 14.985628
v -4.995210 0.000000 14.985628
v 9.990418 0.000000 -4.995210
v 9.990418 0.000000 -4.995210
v -19.980837 0.000000 -4.995210
v -19.980837 0.000000 -4.995210
v -24.976046 0.000000 24.976046
v -24.976046 0.000000 24.976046
v -24.976046 4.000000 24.976046
v 9.990418 0.000000 0.000000
v 9.990418 0.000000 0.000000
v 19.980837 0.000000 -24.976046
v 19.980837 0.000000 24.976046
v 24.976046 0.000000 -19.980837
v -24.976046 0.000000 19.980837
v -19.980837 0.000000 -24.976046
v -14.985628 0.000000 -24.976046
v -9.990419 0.000000 -24.976046
v -4.995210 0.000000 -24.976046
v 0.000000 0.000000 -24.976046
v 4.995209 0.000000 -24.976046
v 9.990418 0.000000 -24.976046
v 14.985628 0.000000 -24.976046
v -19.980837 0.000000 24.976046
v -14.985628 0.000000 24.976046
v -9.990419 0.000000 24.976046
v 9.990418 0.000000 24.976046
v 14.985628 0.000000 24.976046
v 24.976046 0.000000 19.980837
v 24.976046 0.000000 4.995210
v 24.976046 0.000000 0.000000
v -24.976046 0.000000 -19.980837
v -24.976046 0.000000 0.000000
v -24.976046 0.000000 4.995209
v 19.980837 0.000000 -9.990419
v 14.985628 0.000000 -9.990419
v 4.995209 0.000000 19.980837
v -4.995210 0.000000 19.980837
v -14.985628 0.000000 -9.990419
v -19.980837 0.000000 -9.990419
v 9.990418 0.000000 -14.985628
v 9.990418 0.000000 14.985628
v 4.995209 0.000000 -14.985628
v 4.995209 0.000000 0.000000
v 4.995209 0.000000 4.995209
v 0.000000 0.000000 -14.985628
v 0.000000 0.000000 0.000000
v 0.000000 0.000000 4.995209
v -4.995210 0.000000 -14.985628
v -4.995210 0.000000 0.000000
v -4.995210 0.000000 4.995209
v -9.990419 0.000000 -14.985628
v -9.990419 0.000000 14.985628
vn -1.000000 0.000000 0.000000
vn 1.000000 0.000000 0.000000
vn 0.000000 0.000000 1.000000
vn 0.000000 1.000000 0.000000
vn 0.000000 0.000000 -1.000000
vn 0.000000 0.999969 0.000000
g Plane_Plane_Material.001
usemtl Material.001
s 1
f 87//1 86//1 183//1
f 65//2 229//2 167//2
f 98//3 277//3 202//3
f 91//1 90//1 189//1
f 40//2 3//2 135//2
f 254//4 73//4 19//4
f 73//4 81//4 18//4
f 220//3 246//3 148//3
f 356//3 288//3 174//3
f 240//1 26//1 122//1
f 271//1 278//1 177//1
f 215//5 241//5 142//5
f 30//4 41//4 29//4
f 29//4 42//4 323//4
f 11//3 10//3 109//3
f 58//5 341//5 163//5
f 32//2 33//2 128//2
f 25//4 44//4 308//4
f 78//5 354//5 175//5
f 320//5 97//5 133//5
f 267//2 261//2 266//2
f 217//2 48//2 147//2
f 90//1 89//1 188//1
f 276//2 40//2 274//2
f 31//1 327//1 127//1
f 10//3 9//3 108//3
f 282//5 358//5 281//5
f 85//1 84//1 290//1
f 296//2 32//2 99//2
f 353//3 356//3 170//3
f 46//4 51//4 47//4
f 47//4 52//4 221//4
f 273//1 271//1 115//1
f 218//2 217//2 146//2
f 16//5 17//5 114//5
f 49//4 56//4 50//4
f 344//3 259//3 160//3
f 22//5 4//5 119//5
f 341//5 219//5 155//5
f 51//4 349//4 52//4
f 52//4 59//4 53//4
f 53//4 60//6 54//4
f 23//1 24//1 120//1
f 55//4 62//4 56//4
f 56//4 63//6 57//4
f 354//5 351//5 171//5
f 9//3 8//3 107//3
f 252//2 250//2 158//2
f 349//4 66//4 59//4
f 59//4 67//4 60//6
f 60//6 68//4 61//4
f 317//1 31//1 126//1
f 62//4 70//4 63//6
f 63//6 71//4 64//4
f 64//4 72//4 254//4
f 15//5 16//5 113//5
f 359//3 302//3 184//3
f 66//4 74//4 67//4
f 67//4 75//4 68//4
f 68//4 76//4 69//4
f 37//2 38//2 132//2
f 70//4 357//4 71//4
f 71//4 79//4 72//4
f 72//4 80//4 73//4
f 2//3 13//3 325//3
f 358//5 355//5 179//5
f 74//4 82//4 75//4
f 75//4 83//4 76//4
f 76//4 284//4 77//4
f 330//1 23//1 328//1
f 357//4 224//4 79//4
f 79//4 292//4 80//4
f 324//3 207//3 125//3
f 350//3 353//3 164//3
f 93//1 92//1 333//1
f 82//4 283//4 83//4
f 83//4 297//4 284//4
f 208//1 204//1 335//1
f 8//3 7//3 106//3
f 232//3 344//3 152//3
f 292//4 304//4 88//4
f 313//3 338//3 198//3
f 14//5 15//5 112//5
f 351//5 253//5 165//5
f 305//5 293//5 348//5
f 36//2 37//2 131//2
f 21//5 22//5 118//5
f 234//2 233//2 151//2
f 204//1 205//1 138//1
f 7//3 6//3 105//3
f 251//5 235//5 366//5
f 279//3 359//3 368//3
f 247//2 244//2 370//2
f 211//4 255//4 95//4
f 95//4 34//4 96//4
f 355//5 352//5 173//5
f 312//2 314//2 197//2
f 376//5 14//5 374//5
f 268//4 319//4 262//4
f 245//3 350//3 378//3
f 203//4 382//4 391//4
f 396//4 144//4 329//4
f 144//4 153//4 380//4
f 153//4 161//4 395//4
f 161//4 404//4 394//4
f 405//4 185//4 299//4
f 185//4 194//4 393//4
f 194//4 203//4 392//4
f 326//4 379//4 381//4
f 381//4 136//4 315//4
f 331//4 336//4 398//4
f 398//4 140//4 397//4
f 397//4 141//4 243//4
f 310//4 222//4 396//4
f 379//4 390//4 136//4
f 136//4 145//4 362//4
f 362//4 306//4 402//4
f 402//4 403//4 336//4
f 336//4 270//4 140//4
f 140//4 149//4 141//4
f 141//4 150//4 248//4
f 248//4 364//4 222//4
f 222//4 361//4 144//4
f 390//4 389//4 145//4
f 145//4 154//4 306//4
f 270//4 371//4 149//4
f 149//4 377//4 150//4
f 150//4 342//4 364//4
f 361//4 409//4 153//4
f 389//4 388//4 154//4
f 154//4 162//4 408//4
f 377//4 411//4 342//4
f 409//4 300//4 161//4
f 388//4 387//4 162//4
f 162//4 168//4 410//4
f 411//4 414//4 412//4
f 387//4 386//4 168//4
f 168//4 172//4 413//4
f 414//4 417//4 415//4
f 386//4 385//4 172//4
f 172//4 178//4 416//4
f 417//4 291//4 418//4
f 369//4 420//4 405//4
f 385//4 384//4 178//4
f 178//4 186//4 419//4
f 286//4 236//4 291//4
f 291//4 190//4 226//4
f 226//4 191//6 346//4
f 420//4 334//4 185//4
f 384//4 383//4 186//4
f 186//4 195//4 280//4
f 280//4 209//4 406//4
f 406//4 407//4 236//4
f 236//4 373//4 190//4
f 190//4 199//4 191//6
f 191//6 200//4 347//4
f 347//4 265//4 334//4
f 334//4 264//4 194//4
f 383//4 294//4 195//4
f 195//4 399//4 209//4
f 373//4 339//4 199//4
f 199//4 400//4 200//4
f 200//4 401//4 265//4
f 264//4 275//4 203//4
f 285//3 239//3 287//3
f 213//1 216//1 143//1
f 12//3 11//3 110//3
f 309//3 214//3 311//3
f 26//1 27//1 123//1
f 225//5 78//5 227//5
f 5//3 1//3 103//3
f 352//5 58//5 169//5
f 228//5 20//5 231//5
f 13//3 12//3 111//3
f 94//2 312//2 196//2
f 256//5 212//5 258//5
f 27//1 28//1 124//1
f 6//3 5//3 104//3
f 260//2 65//2 301//2
f 206//5 318//5 363//5
f 20//5 21//5 117//5
f 337//2 36//2 340//2
f 86//1 182//1 183//1
f 229//2 116//2 167//2
f 277//3 134//3 202//3
f 90//1 188//1 189//1
f 3//2 101//2 135//2
f 73//4 18//4 19//4
f 81//4 272//4 18//4
f 246//3 156//3 148//3
f 288//3 181//3 174//3
f 26//1 123//1 122//1
f 278//1 176//1 177//1
f 241//5 242//5 142//5
f 41//4 42//4 29//4
f 42//4 43//4 323//4
f 10//3 108//3 109//3
f 341//5 155//5 163//5
f 33//2 129//2 128//2
f 44//4 45//4 308//4
f 354//5 171//5 175//5
f 97//5 201//5 133//5
f 261//2 263//2 266//2
f 48//2 269//2 147//2
f 89//1 187//1 188//1
f 40//2 135//2 274//2
f 327//1 100//1 127//1
f 9//3 107//3 108//3
f 358//5 179//5 281//5
f 84//1 180//1 290//1
f 32//2 128//2 99//2
f 356//3 174//3 170//3
f 51//4 52//4 47//4
f 52//4 53//4 221//4
f 271//1 177//1 115//1
f 217//2 147//2 146//2
f 17//5 298//5 114//5
f 56//4 57//4 50//4
f 259//3 166//3 160//3
f 4//5 102//5 119//5
f 219//5 307//5 155//5
f 349//4 59//4 52//4
f 59//4 60//6 53//4
f 60//6 61//4 54//4
f 24//1 121//1 120//1
f 62//4 63//6 56//4
f 63//6 64//4 57//4
f 351//5 165//5 171//5
f 8//3 106//3 107//3
f 250//2 159//2 158//2
f 66//4 67//4 59//4
f 67//4 68//4 60//6
f 68//4 69//4 61//4
f 31//1 127//1 126//1
f 70//4 71//4 63//6
f 71//4 72//4 64//4
f 72//4 73//4 254//4
f 16//5 114//5 113//5
f 302//3 193//3 184//3
f 74//4 75//4 67//4
f 75//4 76//4 68//4
f 76//4 77//4 69//4
f 38//2 321//2 132//2
f 357//4 79//4 71//4
f 79//4 80//4 72//4
f 80//4 81//4 73//4
f 13//3 111//3 325//3
f 355//5 173//5 179//5
f 82//4 83//4 75//4
f 83//4 284//4 76//4
f 284//4 289//4 77//4
f 23//1 120//1 328//1
f 224//4 292//4 79//4
f 292//4 88//4 80//4
f 207//3 139//3 125//3
f 353//3 170//3 164//3
f 92//1 192//1 333//1
f 283//4 297//4 83//4
f 297//4 238//4 284//4
f 204//1 138//1 335//1
f 7//3 105//3 106//3
f 344//3 160//3 152//3
f 304//4 303//4 88//4
f 338//3 130//3 198//3
f 15//5 113//5 112//5
f 253//5 343//5 165//5
f 293//5 345//5 348//5
f 37//2 132//2 131//2
f 22//5 119//5 118//5
f 233//2 360//2 151//2
f 205//1 137//1 138//1
f 6//3 104//3 105//3
f 235//5 365//5 366//5
f 359//3 184//3 368//3
f 244//2 157//2 370//2
f 255//4 34//4 95//4
f 34//4 35//4 96//4
f 352//5 169//5 173//5
f 314//2 372//2 197//2
f 14//5 112//5 374//5
f 319//4 39//4 262//4
f 350//3 164//3 378//3
f 382//4 375//4 391//4
f 144//4 380//4 329//4
f 153//4 395//4 380//4
f 161//4 394//4 395//4
f 404//4 230//4 394//4
f 185//4 393//4 299//4
f 194//4 392//4 393//4
f 203//4 391//4 392//4
f 379//4 136//4 381//4
f 136//4 362//4 315//4
f 336//4 140//4 398//4
f 140//4 141//4 397//4
f 141//4 248//4 243//4
f 222//4 144//4 396//4
f 390//4 145//4 136//4
f 145//4 306//4 362//4
f 306//4 403//4 402//4
f 403//4 270//4 336//4
f 270//4 149//4 140//4
f 149//4 150//4 141//4
f 150//4 364//4 248//4
f 364//4 361//4 222//4
f 361//4 153//4 144//4
f 389//4 154//4 145//4
f 154//4 408//4 306//4
f 371//4 377//4 149//4
f 377//4 342//4 150//4
f 342//4 367//4 364//4
f 409//4 161//4 153//4
f 388//4 162//4 154//4
f 162//4 410//4 408//4
f 411//4 412//4 342//4
f 300//4 404//4 161//4
f 387//4 168//4 162//4
f 168//4 413//4 410//4
f 414//4 415//4 412//4
f 386//4 172//4 168//4
f 172//4 416//4 413//4
f 417//4 418//4 415//4
f 385//4 178//4 172//4
f 178//4 419//4 416//4
f 291//4 226//4 418//4
f 420//4 185//4 405//4
f 384//4 186//4 178//4
f 186//4 280//4 419//4
f 236//4 190//4 291//4
f 190//4 191//6 226//4
f 191//6 347//4 346//4
f 334//4 194//4 185//4
f 383//4 195//4 186//4
f 195//4 209//4 280//4
f 209//4 407//4 406//4
f 407//4 373//4 236//4
f 373//4 199//4 190//4
f 199//4 200//4 191//6
f 200//4 265//4 347//4
f 265//4 264//4 334//4
f 264//4 203//4 194//4
f 294//4 399//4 195//4
f 399//4 257//4 209//4
f 339//4 400//4 199//4
f 400//4 401//4 200//4
f 401//4 322//4 265//4
f 275//4 382//4 203//4
f 239//3 237//3 287//3
f 216//1 249//1 143//1
f 11//3 109//3 110//3
f 214//3 223//3 311//3
f 27//1 124//1 123//1
f 78//5 175//5 227//5
f 1//3 295//3 103//3
f 58//5 163//5 169//5
f 20//5 117//5 231//5
f 12//3 110//3 111//3
f 312//2 197//2 196//2
f 212//5 210//5 258//5
f 28//1 332//1 124//1
f 5//3 103//3 104//3
f 65//2 167//2 301//2
f 318//5 316//5 363//5
f 21//5 118//5 117//5
f 36//2 131//2 340//2
