# Blender v2.69 (sub 0) OBJ File: 'MyMinecraftPlayer_animated.blend'
# www.blender.org
mtllib MyMinecraftPlayer_animated.mtl
o Player_Cube
v -0.348049 2.000128 0.348049
v -0.348049 2.000128 -0.348049
v 0.348049 2.000128 -0.348049
v 0.348049 2.000128 0.348049
v -0.348049 2.696226 0.348048
v -0.348048 2.696226 -0.348049
v 0.348049 2.696226 -0.348049
v 0.348049 2.696226 0.348049
v 0.330002 1.000128 -0.165001
v 0.330002 1.000128 0.165001
v -0.330002 1.000128 0.165001
v -0.330002 1.000128 -0.165001
v 0.330002 2.000128 -0.165001
v 0.330002 2.000128 0.165001
v -0.330002 2.000128 0.165001
v -0.330002 2.000128 -0.165001
v 0.330002 0.000128 -0.165001
v 0.330002 0.000128 0.165001
v -0.000000 1.000128 0.165001
v -0.000000 1.000128 -0.165001
v 0.330002 1.000128 -0.165001
v 0.330002 1.000128 0.165001
v -0.000000 0.000128 0.165001
v -0.000000 0.000128 -0.165001
v -0.000000 1.000128 0.165001
v -0.000000 0.000128 0.165001
v -0.000000 1.000128 -0.165001
v -0.000000 0.000128 -0.165001
v -0.330002 0.000128 -0.165001
v -0.330002 1.000128 -0.165001
v -0.330002 0.000128 0.165001
v -0.330002 1.000128 0.165001
v 0.660004 2.000128 0.165001
v 0.660004 2.000128 -0.165001
v 0.660004 1.000128 0.165001
v 0.660004 1.000128 -0.165001
v 0.330002 1.000128 -0.165001
v 0.330002 2.000128 -0.165001
v 0.330002 1.000128 0.165001
v 0.330002 2.000128 0.165001
v -0.660004 2.000128 0.165001
v -0.660004 1.000128 0.165001
v -0.660004 2.000128 -0.165001
v -0.660004 1.000128 -0.165001
v -0.330002 1.000128 -0.165001
v -0.330002 1.000128 0.165001
v -0.330002 2.000128 -0.165001
v -0.330002 2.000128 0.165001
v -0.373638 1.974538 0.373638
v -0.373638 1.974538 -0.373638
v 0.373638 1.974538 -0.373638
v 0.373638 1.974538 0.373638
v -0.373639 2.721816 0.373638
v -0.373638 2.721816 -0.373639
v 0.373638 2.721816 -0.373638
v 0.373638 2.721816 0.373638
v 0.330002 1.500128 0.165001
v 0.330002 1.500128 -0.165001
v 0.660004 1.500128 0.165001
v 0.660004 1.500128 -0.165001
v -0.660004 1.500128 -0.165001
v -0.660004 1.500128 0.165001
v -0.330002 1.500128 -0.165001
v -0.330002 1.500128 0.165001
v -0.000000 0.500128 -0.165001
v -0.000000 0.500128 0.165001
v 0.330002 0.500128 -0.165001
v 0.330002 0.500128 0.165001
v -0.330002 0.500128 0.165001
v -0.330002 0.500128 -0.165001
v -0.000000 0.500128 0.165001
v -0.000000 0.500128 -0.165001
vt 0.375000 0.250000
vt 0.375000 0.000000
vt 0.250000 0.000000
vt 0.250000 0.250000
vt 0.125000 0.000000
vt 0.125000 0.250000
vt 0.375000 0.500000
vt 0.250000 0.500000
vt 0.125000 0.500000
vt 0.000000 0.250000
vt 0.000000 0.500000
vt 0.500000 0.500000
vt 0.500000 0.250000
vt 0.312500 0.625000
vt 0.250000 0.625000
vt 0.250000 1.000000
vt 0.312500 1.000000
vt 0.625000 0.625000
vt 0.500000 0.625000
vt 0.500000 1.000000
vt 0.625000 1.000000
vt 0.437500 0.625000
vt 0.437500 1.000000
vt 0.437500 0.500000
vt 0.562500 0.625000
vt 0.562500 0.500000
vt 0.312500 0.500000
vt 0.062500 0.812500
vt 0.000000 0.812500
vt 0.000000 1.000000
vt 0.062500 1.000000
vt 0.187500 0.796875
vt 0.250000 0.796875
vt 0.187500 1.000000
vt 0.062500 0.625000
vt 0.062500 0.500000
vt 0.125000 0.625000
vt 0.125000 0.812500
vt 0.125000 1.000000
vt 0.062500 0.796875
vt 0.125000 0.796875
vt 0.250000 0.812500
vt 0.187500 0.812500
vt 0.187500 0.625000
vt 0.187500 0.500000
vt 0.625000 0.812500
vt 0.687500 0.812500
vt 0.687500 1.000000
vt 0.750000 0.812500
vt 0.750000 1.000000
vt 0.687500 0.625000
vt 0.687500 0.500000
vt 0.750000 0.500000
vt 0.750000 0.625000
vt 0.812500 0.500000
vt 0.812500 0.625000
vt 0.875000 0.812500
vt 0.812500 0.812500
vt 0.812500 1.000000
vt 0.875000 1.000000
vt 0.000000 0.796875
vt 0.375039 0.253355
vt 0.375039 0.003355
vt 0.250039 0.003355
vt 0.250039 0.253355
vt 0.125039 0.003355
vt 0.125039 0.253355
vt 0.375039 0.503355
vt 0.250039 0.503355
vt 0.125039 0.503355
vt 0.000039 0.253355
vt 0.000039 0.503355
vt 0.500039 0.503355
vt 0.500039 0.253355
vt 0.875000 0.625000
vt 0.000000 0.625000
vn 0.000000 -1.000000 -0.000000
vn 0.000000 1.000000 0.000000
vn -1.000000 0.000000 -0.000000
vn 0.000000 -0.000000 -1.000000
vn 1.000000 -0.000000 0.000000
vn -0.000000 0.000000 1.000000
usemtl Player
s off
f 1/1/1 2/2/1 3/3/1 4/4/1
f 5/3/2 8/5/2 7/6/2 6/4/2
f 1/7/3 5/1/3 6/4/3 2/8/3
f 2/8/4 6/4/4 7/6/4 3/9/4
f 3/9/5 7/6/5 8/10/5 4/11/5
f 5/1/6 1/7/6 4/12/6 8/13/6
f 13/14/5 14/15/5 10/16/5 9/17/5
f 14/18/6 15/19/6 11/20/6 10/21/6
f 15/19/3 16/22/3 12/23/3 11/20/3
f 16/22/4 13/14/4 9/17/4 12/23/4
f 9/24/1 10/22/1 11/25/1 12/26/1
f 16/22/2 15/24/2 14/27/2 13/14/2
f 67/28/5 68/29/5 18/30/5 17/31/5
f 71/32/6 69/33/6 31/16/6 23/34/6
f 30/35/2 32/36/2 19/9/2 20/37/2
f 65/38/4 67/28/4 17/31/4 28/39/4
f 70/40/4 72/41/4 24/39/4 29/31/4
f 27/37/2 25/9/2 22/36/2 21/35/2
f 68/42/6 66/43/6 26/34/6 18/16/6
f 72/41/5 71/32/5 23/34/5 24/39/5
f 17/9/1 18/37/1 26/44/1 28/45/1
f 66/43/3 65/38/3 28/39/3 26/34/3
f 24/45/1 23/44/1 31/37/1 29/9/1
f 62/46/3 61/47/3 44/48/3 42/21/3
f 61/47/4 63/49/4 45/50/4 44/48/4
f 43/51/2 41/52/2 48/53/2 47/54/2
f 45/55/1 46/56/1 42/54/1 44/53/1
f 64/57/6 62/58/6 42/59/6 46/60/6
f 63/49/5 64/58/5 46/59/5 45/50/5
f 69/61/3 70/40/3 29/31/3 31/30/3
f 57/58/3 58/49/3 37/50/3 39/59/3
f 58/49/4 60/47/4 36/48/4 37/50/4
f 38/54/2 40/53/2 33/52/2 34/51/2
f 36/53/1 35/54/1 39/56/1 37/55/1
f 59/57/6 57/58/6 39/59/6 35/60/6
f 60/47/5 59/46/5 35/21/5 36/48/5
f 49/62/1 50/63/1 51/64/1 52/65/1
f 53/64/2 56/66/2 55/67/2 54/65/2
f 49/68/3 53/62/3 54/65/3 50/69/3
f 50/69/4 54/65/4 55/67/4 51/70/4
f 51/70/5 55/67/5 56/71/5 52/72/5
f 53/62/6 49/68/6 52/73/6 56/74/6
f 40/56/3 38/54/3 58/49/3 57/58/3
f 38/54/4 34/51/4 60/47/4 58/49/4
f 33/75/6 40/56/6 57/58/6 59/57/6
f 34/51/5 33/18/5 59/46/5 60/47/5
f 41/18/3 43/51/3 61/47/3 62/46/3
f 43/51/4 47/54/4 63/49/4 61/47/4
f 48/75/6 41/56/6 62/58/6 64/57/6
f 47/54/5 48/56/5 64/58/5 63/49/5
f 25/44/3 27/37/3 65/38/3 66/43/3
f 30/35/4 20/37/4 72/41/4 70/40/4
f 21/35/5 22/76/5 68/29/5 67/28/5
f 22/15/6 25/44/6 66/43/6 68/42/6
f 20/37/5 19/44/5 71/32/5 72/41/5
f 27/37/4 21/35/4 67/28/4 65/38/4
f 32/76/3 30/35/3 70/40/3 69/61/3
f 19/44/6 32/15/6 69/33/6 71/32/6
